<?xml version="1.0" encoding="UTF-8"?>
<svg version="1.1" xmlns="http://www.w3.org/2000/svg" width="512" height="512">
<path d="M0 0 C1.85654835 -0.00424107 1.85654835 -0.00424107 3.75060272 -0.00856781 C9.64474563 -0.02197852 15.53887539 -0.0318858 21.43303132 -0.0357697 C27.46666372 -0.03977202 33.50010832 -0.05241358 39.53369141 -0.078125 C97.28105898 -0.31937123 97.28105898 -0.31937123 124.296875 3.203125 C125.57649109 3.36690643 126.85610718 3.53068787 128.17449951 3.69943237 C136.23716782 4.74334894 144.27152478 5.90278996 152.296875 7.203125 C153.30298828 7.36425781 154.30910156 7.52539062 155.34570312 7.69140625 C165.8358542 9.40835712 175.77996614 11.23399091 185.296875 16.203125 C186.15152344 16.64398437 187.00617188 17.08484375 187.88671875 17.5390625 C206.01705868 27.6518253 216.90197798 43.87911638 222.53515625 63.48828125 C224.38259662 72.49810581 224.44323257 81.6242154 224.43058777 90.78964233 C224.43285333 92.01085081 224.43511888 93.23205928 224.43745309 94.49027407 C224.4426557 97.84941168 224.44344361 101.2084954 224.44225872 104.56763315 C224.44205341 108.20235476 224.44758571 111.83706858 224.45231628 115.4717865 C224.46059467 122.58071821 224.46336983 129.68964164 224.46392866 136.79857777 C224.46440505 142.58005102 224.46646591 148.36152154 224.46962929 154.14299393 C224.4784273 170.55807305 224.48304987 186.97314565 224.48229881 203.38822715 C224.48223888 204.71344241 224.48223888 204.71344241 224.48217773 206.06542969 C224.48213685 206.94999295 224.48209597 207.83455622 224.48205385 208.74592443 C224.48164737 223.08244298 224.49121973 237.41893528 224.5053161 251.75544624 C224.51969775 266.49913092 224.52658534 281.2428028 224.52572232 295.98649466 C224.52539103 304.25476481 224.52810867 312.5230074 224.53890038 320.79127121 C224.54802882 327.82986631 224.55016134 334.86842136 224.54339095 341.90701984 C224.54013788 345.49345675 224.54002497 349.07981692 224.5487442 352.66624641 C224.55812499 356.56507942 224.5518018 360.46380183 224.54411316 364.36264038 C224.54925672 365.48066367 224.55440029 366.59868695 224.55969971 367.75058973 C224.48600182 384.74777448 221.38419181 399.63580644 209.296875 412.203125 C199.88514841 420.9013272 189.75343893 424.80162443 177.296875 427.203125 C178.01435913 427.91275391 178.01435913 427.91275391 178.74633789 428.63671875 C180.9534284 430.82276906 183.15641133 433.01291629 185.359375 435.203125 C186.11154297 435.94691406 186.86371094 436.69070313 187.63867188 437.45703125 C191.79639725 441.59675781 195.75814004 445.82256684 199.58374023 450.26953125 C202.50356782 453.56510407 205.65441824 456.6217805 208.796875 459.703125 C216.68237118 467.50465172 216.68237118 467.50465172 219.796875 471.203125 C222.04765897 473.82537129 224.36355438 476.31643915 226.83203125 478.734375 C227.49074219 479.38535156 228.14945312 480.03632813 228.828125 480.70703125 C230.14491053 482.00102626 231.46626313 483.29039655 232.79296875 484.57421875 C244.58647418 496.1475135 244.58647418 496.1475135 244.921875 502.390625 C244.23679021 506.56964224 243.3049029 508.28356851 240.296875 511.203125 C237.29713441 512.70299529 234.20464191 512.3765777 230.91308594 512.39599609 C230.15189957 512.40417358 229.3907132 512.41235107 228.60646057 512.42077637 C226.0813984 512.44563631 223.55639253 512.46214905 221.03125 512.4765625 C219.73787594 512.48454802 219.73787594 512.48454802 218.41837311 512.49269485 C213.85330595 512.51943079 209.28826617 512.53880306 204.72314453 512.55322266 C200.01077508 512.56985944 195.2991065 512.61462737 190.5870018 512.6655941 C186.96153982 512.69927561 183.33624389 512.71080111 179.71063995 512.71644974 C177.97390648 512.72316121 176.23718389 512.73838067 174.50060272 512.76234055 C172.06590482 512.794012 169.63309258 512.79402656 167.19824219 512.78662109 C166.12725029 512.8112291 166.12725029 512.8112291 165.03462219 512.83633423 C159.38606714 512.76621172 157.15011067 511.01789626 153.296875 507.203125 C151.72045898 505.3605957 151.72045898 505.3605957 150.54296875 503.62890625 C150.08728516 502.96987305 149.63160156 502.31083984 149.16210938 501.63183594 C148.69095703 500.93348633 148.21980469 500.23513672 147.734375 499.515625 C146.69243148 498.00580238 145.64942402 496.49671356 144.60546875 494.98828125 C144.06776855 494.20727051 143.53006836 493.42625977 142.97607422 492.62158203 C140.13418892 488.52857305 137.2165681 484.49082158 134.296875 480.453125 C133.48754517 479.32837769 133.48754517 479.32837769 132.66186523 478.1809082 C132.14954346 477.471521 131.63722168 476.76213379 131.109375 476.03125 C130.66207031 475.4115332 130.21476562 474.79181641 129.75390625 474.15332031 C129.03267578 473.18797363 129.03267578 473.18797363 128.296875 472.203125 C127.75708071 471.35210772 127.21728642 470.50109043 126.66113472 469.62428474 C124.45949563 466.91261177 124.45949563 466.91261177 121.00587273 466.5515728 C119.0287514 466.53315928 119.0287514 466.53315928 117.01168823 466.51437378 C116.27620321 466.5009293 115.5407182 466.48748482 114.78294575 466.47363293 C112.31704176 466.43494011 109.85241742 466.43202875 107.38623047 466.42919922 C105.61861398 466.40932735 103.8510191 466.38744762 102.08345032 466.3637085 C97.27941981 466.30666806 92.47577751 466.28264812 87.67144918 466.26804495 C84.66818744 466.25782653 81.66502813 466.24124176 78.66180801 466.22253799 C68.17879475 466.15828164 57.69608858 466.12323031 47.21289062 466.11181641 C37.45093542 466.10032028 27.69107859 466.02126029 17.92978179 465.91134632 C9.54313434 465.82022491 1.15718214 465.77935231 -7.22995651 465.77662289 C-12.23674419 465.77399238 -17.24135091 465.75073358 -22.24762344 465.67580795 C-26.96181855 465.60678527 -31.67207653 465.60047735 -36.38656044 465.64125824 C-38.11111706 465.64564643 -39.83589995 465.62803764 -41.55995369 465.58616257 C-50.428998 465.17328171 -50.428998 465.17328171 -58.36940718 468.47956514 C-61.80770678 471.98701337 -64.23991055 475.97916348 -66.703125 480.203125 C-67.78173599 481.73695472 -68.87251718 483.26251239 -69.98828125 484.76953125 C-70.91633591 486.09997957 -71.84216017 487.43198679 -72.765625 488.765625 C-76.36564321 493.90368462 -79.97502561 499.03190715 -83.703125 504.078125 C-84.7240625 505.46644531 -84.7240625 505.46644531 -85.765625 506.8828125 C-88.76073313 510.46969602 -90.4025229 512.05842128 -95.18760681 512.59080505 C-96.59880517 512.61162318 -98.0103061 512.61593096 -99.42163086 512.60717773 C-100.19446915 512.61404099 -100.96730743 512.62090424 -101.76356506 512.62797546 C-104.31522049 512.64625874 -106.86626195 512.64240384 -109.41796875 512.63671875 C-111.19389547 512.64127994 -112.96982042 512.64658532 -114.7457428 512.65260315 C-118.46720552 512.66153732 -122.18845369 512.65910781 -125.90991211 512.64916992 C-130.67608837 512.63768173 -135.4415236 512.6578876 -140.2076025 512.68708706 C-143.87509354 512.70544459 -147.54240687 512.70515748 -151.20993233 512.69944954 C-152.9669861 512.69929626 -154.72405187 512.70534617 -156.48106194 512.71774101 C-158.93958716 512.73264059 -161.3967419 512.72198258 -163.85522461 512.70483398 C-164.57902313 512.71450195 -165.30282166 512.72416992 -166.04855347 512.73413086 C-170.8667148 512.66385394 -173.32017554 511.62140097 -176.703125 508.203125 C-178.41330086 504.78277327 -178.59429456 501.8480685 -177.703125 498.203125 C-171.53376665 488.73492822 -162.59758052 480.89146413 -154.578125 473.015625 C-152.11375509 470.58808931 -149.65268042 468.15727982 -147.1953125 465.72265625 C-146.60764603 465.14053375 -146.01997955 464.55841125 -145.414505 463.95864868 C-141.96613008 460.52223559 -138.70489414 456.99717254 -135.5546875 453.28393555 C-131.03371657 448.20320833 -126.09219223 443.491968 -121.265625 438.703125 C-120.1410417 437.58356868 -119.01669095 436.46377871 -117.89257812 435.34375 C-115.16543156 432.62750966 -112.43516593 429.91444208 -109.703125 427.203125 C-110.64051514 427.0177417 -111.57790527 426.8323584 -112.54370117 426.64135742 C-113.78611572 426.38717041 -115.02853027 426.1329834 -116.30859375 425.87109375 C-117.53473389 425.62383545 -118.76087402 425.37657715 -120.02416992 425.12182617 C-133.01158673 421.87863489 -142.86161217 413.86508507 -150.19921875 402.8671875 C-152.65364125 398.51935337 -154.23133635 393.95874318 -155.703125 389.203125 C-156.033125 388.213125 -156.363125 387.223125 -156.703125 386.203125 C-156.79793836 384.44058366 -156.83404634 382.67464393 -156.83734608 380.90955734 C-156.84180392 379.80511489 -156.84626176 378.70067243 -156.85085469 377.56276202 C-156.85067033 376.34441078 -156.85048597 375.12605955 -156.85029602 373.87078857 C-156.85397271 372.58023914 -156.8576494 371.2896897 -156.8614375 369.9600327 C-156.87146222 366.37006794 -156.87517509 362.78011989 -156.87782681 359.19014311 C-156.88172874 355.32074491 -156.8913075 351.45135996 -156.90003967 347.58197021 C-156.91981247 338.23045301 -156.92987363 328.8789347 -156.93876746 319.5274018 C-156.94315108 315.1211648 -156.94851789 310.71492899 -156.95375633 306.30869293 C-156.97077328 291.65505091 -156.98526489 277.00140964 -156.99250507 262.34775925 C-156.99441492 258.54401397 -156.99633525 254.74026869 -156.99829102 250.93652344 C-156.99877476 249.9911391 -156.9992585 249.04575476 -156.9997569 248.07172242 C-157.00804746 232.77574094 -157.03336579 217.47983793 -157.06587169 202.18389067 C-157.09899068 186.47089926 -157.11695841 170.75794764 -157.12014931 155.04492116 C-157.12231048 146.22645918 -157.13100084 137.40811142 -157.15661049 128.58968353 C-157.17838411 121.07478851 -157.1863355 113.56003545 -157.17664371 106.04511246 C-157.17211751 102.2153684 -157.17388602 98.38591679 -157.19340515 94.55621338 C-157.31146129 69.99305727 -155.59708646 50.53225208 -138.703125 31.203125 C-138.17203125 30.58953125 -137.6409375 29.9759375 -137.09375 29.34375 C-113.94415403 4.43037529 -70.13425895 4.00602181 -38.703125 1.203125 C-37.91202332 1.11946686 -37.12092163 1.03580872 -36.30584717 0.94961548 C-24.23515219 -0.18168707 -12.11189199 0.01881186 0 0 Z M-35.703125 436.203125 C-36.85588094 437.71384167 -38.02012746 439.21597069 -39.203125 440.703125 C-41.25436538 443.17407302 -41.25436538 443.17407302 -41.703125 446.203125 C8.126875 446.203125 57.956875 446.203125 109.296875 446.203125 C107.92377379 443.45692258 106.73186602 441.26153469 104.984375 438.8203125 C104.33082031 437.90572266 104.33082031 437.90572266 103.6640625 436.97265625 C103.21289062 436.34746094 102.76171875 435.72226562 102.296875 435.078125 C101.84570312 434.44519531 101.39453125 433.81226563 100.9296875 433.16015625 C99.15970457 430.69370075 97.44729414 428.35354414 95.296875 426.203125 C93.06420015 425.87630232 93.06420015 425.87630232 90.44064331 425.89532471 C89.41451431 425.87812378 88.38838531 425.86092285 87.3311615 425.84320068 C86.20077957 425.83468079 85.07039764 425.82616089 83.90576172 425.81738281 C82.71863083 425.80102783 81.53149994 425.78467285 80.30839539 425.76782227 C76.36450592 425.71804146 72.42064645 425.68475708 68.4765625 425.65625 C67.11778868 425.64552932 65.75901513 425.6347743 64.40024185 425.62398529 C58.74535997 425.58071778 53.09048949 425.5432498 47.43548393 425.52074051 C39.33862173 425.48829803 31.24368487 425.42205549 23.14754856 425.30793881 C17.45146446 425.23040022 11.75589359 425.19145887 6.05929577 425.18089938 C2.65888306 425.17360723 -0.73947697 425.14974923 -4.13931656 425.08469391 C-7.93957673 425.02144267 -11.73499618 425.02130382 -15.53564453 425.03613281 C-16.65388107 425.00332214 -17.77211761 424.97051147 -18.92424011 424.93670654 C-27.97786647 425.08111491 -30.97820065 428.86054318 -35.703125 436.203125 Z " fill="#FC6143" transform="translate(222.703125,-0.203125)"/>
<path d="M0 0 C1.74683508 -0.00701996 1.74683508 -0.00701996 3.52895975 -0.01418173 C6.75757404 -0.02407737 9.98584999 -0.02051592 13.21445584 -0.01122308 C16.69781372 -0.00443796 20.18112571 -0.01491114 23.66447449 -0.02316284 C30.48682342 -0.03650814 37.30907339 -0.03361891 44.13142622 -0.02492492 C49.67570456 -0.01815191 55.21995516 -0.01722999 60.76423645 -0.02049637 C61.94752178 -0.02118592 61.94752178 -0.02118592 63.15471187 -0.0218894 C64.75722055 -0.02284856 66.35972923 -0.0238212 67.96223789 -0.02480717 C82.9917158 -0.03336339 98.02113883 -0.02352329 113.05060774 -0.00740607 C125.94876435 0.00599733 138.84683997 0.0036693 151.74499512 -0.01016235 C166.72040627 -0.02621407 181.69576932 -0.0325394 196.67118788 -0.02332556 C198.26782703 -0.02236991 199.86446618 -0.0214268 201.46110535 -0.02049637 C202.63949474 -0.01980213 202.63949474 -0.01980213 203.84168997 -0.01909386 C209.37980803 -0.01650275 214.91789558 -0.02087759 220.45600891 -0.02793503 C227.20441834 -0.03634569 233.95272307 -0.03407907 240.7011205 -0.0180928 C244.14478641 -0.01020417 247.58827771 -0.00712841 251.03194237 -0.01704025 C254.76325118 -0.02520503 258.49406476 -0.01499478 262.2253418 0 C263.31628726 -0.00669217 264.40723271 -0.01338433 265.53123713 -0.02027929 C274.78443912 0.05213686 274.78443912 0.05213686 278.6126709 3.38095093 C281.07417849 7.07321231 280.87073102 8.90513206 280.88682556 13.31378174 C280.89206224 14.02335529 280.89729892 14.73292885 280.90269428 15.46400464 C280.91772633 17.84767226 280.91840013 20.23112583 280.91906738 22.61483765 C280.92668671 24.32143518 280.93511381 26.02802927 280.94429016 27.73461914 C280.96626408 32.37513167 280.97503791 37.0155783 280.98011661 41.65613699 C280.98375667 44.55428572 280.98999488 47.4524171 280.997118 50.35055923 C281.02162225 60.45819103 281.03466656 70.56577142 281.03820801 80.6734314 C281.04184437 90.10011399 281.07174439 99.5264712 281.11361259 108.95305431 C281.14828351 117.04230935 281.16375589 125.1314564 281.16445404 133.22078526 C281.16524793 138.05396145 281.17403783 142.88680632 281.20245171 147.71990585 C281.22857776 152.26560662 281.23086834 156.81070009 281.21479607 161.3564415 C281.21297722 163.02496665 281.21971157 164.69352627 281.23561478 166.36197662 C281.25600558 168.64009102 281.24556795 170.91606655 281.22740173 173.19415283 C281.22941306 174.46878325 281.23142439 175.74341366 281.23349667 177.05666924 C280.44903855 181.25713884 278.8740724 182.71627266 275.6126709 185.38095093 C273.1842273 186.59517273 271.64402448 186.50845481 268.92959118 186.51237869 C267.93592484 186.51621984 266.9422585 186.52006098 265.91848105 186.52401853 C264.26895508 186.5227188 264.26895508 186.5227188 262.58610535 186.52139282 C261.4241119 186.52436394 260.26211846 186.52733507 259.06491309 186.53039622 C255.82962784 186.53759156 252.59437487 186.54025671 249.35908282 186.54099369 C245.87363946 186.5428414 242.38820768 186.55038731 238.902771 186.55712891 C231.27676546 186.57072457 223.65076516 186.5767389 216.02474952 186.58113956 C211.26507757 186.58389998 206.50540765 186.58813697 201.74573708 186.59264374 C188.57359666 186.60483815 175.40145788 186.61513704 162.22931194 186.61851883 C161.38587079 186.6187384 160.54242963 186.61895796 159.67342966 186.61918418 C158.40519964 186.6195116 158.40519964 186.6195116 157.11134881 186.61984563 C155.3980037 186.6202891 153.68465859 186.62073566 151.97131348 186.6211853 C151.12143082 186.62140673 150.27154817 186.62162816 149.39591149 186.6218563 C135.62245741 186.62580493 121.84905622 186.64326016 108.07562258 186.66654482 C93.94246791 186.6902452 79.80933979 186.70272008 65.67616493 186.70388675 C57.73775689 186.70480426 49.79941775 186.71057577 41.86102867 186.72870636 C35.10158074 186.74408966 28.34222299 186.74923834 21.58276089 186.74096826 C18.13303068 186.73705539 14.68348216 186.73802209 11.23377419 186.7520256 C7.4957538 186.76465515 3.75820387 186.75891695 0.02018738 186.7484436 C-1.07280444 186.75650001 -2.16579626 186.76455641 -3.29190904 186.77285695 C-9.73448443 186.73046453 -13.44703187 186.26389476 -18.17601967 181.62715054 C-19.87215475 178.48191129 -19.76505536 176.00784544 -19.76828003 172.4417572 C-19.77296 171.74357988 -19.77763997 171.04540255 -19.78246176 170.32606834 C-19.7944268 167.98682875 -19.78494896 165.64817338 -19.7755127 163.30892944 C-19.77957778 161.63174091 -19.7849193 159.95455505 -19.79144287 158.27737427 C-19.80513092 153.72156892 -19.79981142 149.16596716 -19.79030561 144.61015821 C-19.78271548 139.84388504 -19.78975295 135.07762943 -19.79446411 130.31135559 C-19.79992408 122.30579496 -19.79272429 114.30031732 -19.77844238 106.29476929 C-19.76212098 97.03911895 -19.7673997 87.78366691 -19.7839216 78.5280214 C-19.79753625 70.58311279 -19.79945606 62.63826389 -19.79160559 54.69334739 C-19.78692825 49.94747953 -19.78630581 45.20170485 -19.79621506 40.45584297 C-19.80488193 35.99312181 -19.79886793 31.5306562 -19.78153229 27.06796265 C-19.77756571 25.430093 -19.77870443 23.79220184 -19.78532028 22.15434074 C-19.79351946 19.91831301 -19.78323465 17.68310389 -19.76828003 15.4471283 C-19.76714895 14.19591973 -19.76601788 12.94471117 -19.76485252 11.6555872 C-19.23539946 7.06311401 -17.81032325 4.66919195 -14.41153717 1.59226036 C-9.67473733 -0.30500669 -5.05568452 -0.03101299 0 0 Z " fill="#000000" transform="translate(125.3873291015625,79.61904907226563)"/>
<path d="M0 0 C1.85654835 -0.00424107 1.85654835 -0.00424107 3.75060272 -0.00856781 C9.64474563 -0.02197852 15.53887539 -0.0318858 21.43303132 -0.0357697 C27.46666372 -0.03977202 33.50010832 -0.05241358 39.53369141 -0.078125 C97.28105898 -0.31937123 97.28105898 -0.31937123 124.296875 3.203125 C125.57649109 3.36690643 126.85610718 3.53068787 128.17449951 3.69943237 C136.23716782 4.74334894 144.27152478 5.90278996 152.296875 7.203125 C153.30298828 7.36425781 154.30910156 7.52539062 155.34570312 7.69140625 C165.8358542 9.40835712 175.77996614 11.23399091 185.296875 16.203125 C186.15152344 16.64398437 187.00617188 17.08484375 187.88671875 17.5390625 C206.01705868 27.6518253 216.90197798 43.87911638 222.53515625 63.48828125 C224.38259662 72.49810581 224.44323257 81.6242154 224.43058777 90.78964233 C224.43285333 92.01085081 224.43511888 93.23205928 224.43745309 94.49027407 C224.4426557 97.84941168 224.44344361 101.2084954 224.44225872 104.56763315 C224.44205341 108.20235476 224.44758571 111.83706858 224.45231628 115.4717865 C224.46059467 122.58071821 224.46336983 129.68964164 224.46392866 136.79857777 C224.46440505 142.58005102 224.46646591 148.36152154 224.46962929 154.14299393 C224.4784273 170.55807305 224.48304987 186.97314565 224.48229881 203.38822715 C224.48223888 204.71344241 224.48223888 204.71344241 224.48217773 206.06542969 C224.48213685 206.94999295 224.48209597 207.83455622 224.48205385 208.74592443 C224.48164737 223.08244298 224.49121973 237.41893528 224.5053161 251.75544624 C224.51969775 266.49913092 224.52658534 281.2428028 224.52572232 295.98649466 C224.52539103 304.25476481 224.52810867 312.5230074 224.53890038 320.79127121 C224.54802882 327.82986631 224.55016134 334.86842136 224.54339095 341.90701984 C224.54013788 345.49345675 224.54002497 349.07981692 224.5487442 352.66624641 C224.55812499 356.56507942 224.5518018 360.46380183 224.54411316 364.36264038 C224.54925672 365.48066367 224.55440029 366.59868695 224.55969971 367.75058973 C224.48600182 384.74777448 221.38419181 399.63580644 209.296875 412.203125 C199.88514841 420.9013272 189.75343893 424.80162443 177.296875 427.203125 C178.01435913 427.91275391 178.01435913 427.91275391 178.74633789 428.63671875 C180.9534284 430.82276906 183.15641133 433.01291629 185.359375 435.203125 C186.11154297 435.94691406 186.86371094 436.69070313 187.63867188 437.45703125 C191.79639725 441.59675781 195.75814004 445.82256684 199.58374023 450.26953125 C202.50356782 453.56510407 205.65441824 456.6217805 208.796875 459.703125 C216.68237118 467.50465172 216.68237118 467.50465172 219.796875 471.203125 C222.04765897 473.82537129 224.36355438 476.31643915 226.83203125 478.734375 C227.49074219 479.38535156 228.14945312 480.03632813 228.828125 480.70703125 C230.14491053 482.00102626 231.46626313 483.29039655 232.79296875 484.57421875 C244.58647418 496.1475135 244.58647418 496.1475135 244.921875 502.390625 C244.23679021 506.56964224 243.3049029 508.28356851 240.296875 511.203125 C237.29713441 512.70299529 234.20464191 512.3765777 230.91308594 512.39599609 C230.15189957 512.40417358 229.3907132 512.41235107 228.60646057 512.42077637 C226.0813984 512.44563631 223.55639253 512.46214905 221.03125 512.4765625 C219.73787594 512.48454802 219.73787594 512.48454802 218.41837311 512.49269485 C213.85330595 512.51943079 209.28826617 512.53880306 204.72314453 512.55322266 C200.01077508 512.56985944 195.2991065 512.61462737 190.5870018 512.6655941 C186.96153982 512.69927561 183.33624389 512.71080111 179.71063995 512.71644974 C177.97390648 512.72316121 176.23718389 512.73838067 174.50060272 512.76234055 C172.06590482 512.794012 169.63309258 512.79402656 167.19824219 512.78662109 C166.12725029 512.8112291 166.12725029 512.8112291 165.03462219 512.83633423 C159.38606714 512.76621172 157.15011067 511.01789626 153.296875 507.203125 C151.72045898 505.3605957 151.72045898 505.3605957 150.54296875 503.62890625 C150.08728516 502.96987305 149.63160156 502.31083984 149.16210938 501.63183594 C148.69095703 500.93348633 148.21980469 500.23513672 147.734375 499.515625 C146.69243148 498.00580238 145.64942402 496.49671356 144.60546875 494.98828125 C144.06776855 494.20727051 143.53006836 493.42625977 142.97607422 492.62158203 C140.13418892 488.52857305 137.2165681 484.49082158 134.296875 480.453125 C133.48754517 479.32837769 133.48754517 479.32837769 132.66186523 478.1809082 C132.14954346 477.471521 131.63722168 476.76213379 131.109375 476.03125 C130.66207031 475.4115332 130.21476562 474.79181641 129.75390625 474.15332031 C129.03267578 473.18797363 129.03267578 473.18797363 128.296875 472.203125 C127.75708071 471.35210772 127.21728642 470.50109043 126.66113472 469.62428474 C124.45949563 466.91261177 124.45949563 466.91261177 121.00587273 466.5515728 C119.0287514 466.53315928 119.0287514 466.53315928 117.01168823 466.51437378 C116.27620321 466.5009293 115.5407182 466.48748482 114.78294575 466.47363293 C112.31704176 466.43494011 109.85241742 466.43202875 107.38623047 466.42919922 C105.61861398 466.40932735 103.8510191 466.38744762 102.08345032 466.3637085 C97.27941981 466.30666806 92.47577751 466.28264812 87.67144918 466.26804495 C84.66818744 466.25782653 81.66502813 466.24124176 78.66180801 466.22253799 C68.17879475 466.15828164 57.69608858 466.12323031 47.21289062 466.11181641 C37.45093542 466.10032028 27.69107859 466.02126029 17.92978179 465.91134632 C9.54313434 465.82022491 1.15718214 465.77935231 -7.22995651 465.77662289 C-12.23674419 465.77399238 -17.24135091 465.75073358 -22.24762344 465.67580795 C-26.96181855 465.60678527 -31.67207653 465.60047735 -36.38656044 465.64125824 C-38.11111706 465.64564643 -39.83589995 465.62803764 -41.55995369 465.58616257 C-50.428998 465.17328171 -50.428998 465.17328171 -58.36940718 468.47956514 C-61.80770678 471.98701337 -64.23991055 475.97916348 -66.703125 480.203125 C-67.78173599 481.73695472 -68.87251718 483.26251239 -69.98828125 484.76953125 C-70.91633591 486.09997957 -71.84216017 487.43198679 -72.765625 488.765625 C-76.36564321 493.90368462 -79.97502561 499.03190715 -83.703125 504.078125 C-84.7240625 505.46644531 -84.7240625 505.46644531 -85.765625 506.8828125 C-88.76073313 510.46969602 -90.4025229 512.05842128 -95.18760681 512.59080505 C-96.59880517 512.61162318 -98.0103061 512.61593096 -99.42163086 512.60717773 C-100.19446915 512.61404099 -100.96730743 512.62090424 -101.76356506 512.62797546 C-104.31522049 512.64625874 -106.86626195 512.64240384 -109.41796875 512.63671875 C-111.19389547 512.64127994 -112.96982042 512.64658532 -114.7457428 512.65260315 C-118.46720552 512.66153732 -122.18845369 512.65910781 -125.90991211 512.64916992 C-130.67608837 512.63768173 -135.4415236 512.6578876 -140.2076025 512.68708706 C-143.87509354 512.70544459 -147.54240687 512.70515748 -151.20993233 512.69944954 C-152.9669861 512.69929626 -154.72405187 512.70534617 -156.48106194 512.71774101 C-158.93958716 512.73264059 -161.3967419 512.72198258 -163.85522461 512.70483398 C-164.57902313 512.71450195 -165.30282166 512.72416992 -166.04855347 512.73413086 C-170.8667148 512.66385394 -173.32017554 511.62140097 -176.703125 508.203125 C-178.41330086 504.78277327 -178.59429456 501.8480685 -177.703125 498.203125 C-171.53376665 488.73492822 -162.59758052 480.89146413 -154.578125 473.015625 C-152.11375509 470.58808931 -149.65268042 468.15727982 -147.1953125 465.72265625 C-146.60764603 465.14053375 -146.01997955 464.55841125 -145.414505 463.95864868 C-141.96613008 460.52223559 -138.70489414 456.99717254 -135.5546875 453.28393555 C-131.03371657 448.20320833 -126.09219223 443.491968 -121.265625 438.703125 C-120.1410417 437.58356868 -119.01669095 436.46377871 -117.89257812 435.34375 C-115.16543156 432.62750966 -112.43516593 429.91444208 -109.703125 427.203125 C-110.64051514 427.0177417 -111.57790527 426.8323584 -112.54370117 426.64135742 C-113.78611572 426.38717041 -115.02853027 426.1329834 -116.30859375 425.87109375 C-117.53473389 425.62383545 -118.76087402 425.37657715 -120.02416992 425.12182617 C-133.01158673 421.87863489 -142.86161217 413.86508507 -150.19921875 402.8671875 C-152.65364125 398.51935337 -154.23133635 393.95874318 -155.703125 389.203125 C-156.033125 388.213125 -156.363125 387.223125 -156.703125 386.203125 C-156.79793836 384.44058366 -156.83404634 382.67464393 -156.83734608 380.90955734 C-156.84180392 379.80511489 -156.84626176 378.70067243 -156.85085469 377.56276202 C-156.85067033 376.34441078 -156.85048597 375.12605955 -156.85029602 373.87078857 C-156.85397271 372.58023914 -156.8576494 371.2896897 -156.8614375 369.9600327 C-156.87146222 366.37006794 -156.87517509 362.78011989 -156.87782681 359.19014311 C-156.88172874 355.32074491 -156.8913075 351.45135996 -156.90003967 347.58197021 C-156.91981247 338.23045301 -156.92987363 328.8789347 -156.93876746 319.5274018 C-156.94315108 315.1211648 -156.94851789 310.71492899 -156.95375633 306.30869293 C-156.97077328 291.65505091 -156.98526489 277.00140964 -156.99250507 262.34775925 C-156.99441492 258.54401397 -156.99633525 254.74026869 -156.99829102 250.93652344 C-156.99877476 249.9911391 -156.9992585 249.04575476 -156.9997569 248.07172242 C-157.00804746 232.77574094 -157.03336579 217.47983793 -157.06587169 202.18389067 C-157.09899068 186.47089926 -157.11695841 170.75794764 -157.12014931 155.04492116 C-157.12231048 146.22645918 -157.13100084 137.40811142 -157.15661049 128.58968353 C-157.17838411 121.07478851 -157.1863355 113.56003545 -157.17664371 106.04511246 C-157.17211751 102.2153684 -157.17388602 98.38591679 -157.19340515 94.55621338 C-157.31146129 69.99305727 -155.59708646 50.53225208 -138.703125 31.203125 C-138.17203125 30.58953125 -137.6409375 29.9759375 -137.09375 29.34375 C-113.94415403 4.43037529 -70.13425895 4.00602181 -38.703125 1.203125 C-37.91202332 1.11946686 -37.12092163 1.03580872 -36.30584717 0.94961548 C-24.23515219 -0.18168707 -12.11189199 0.01881186 0 0 Z M-65.25341797 24.76464844 C-68.16867457 25.28645438 -71.09155182 25.734854 -74.01953125 26.1796875 C-75.12756104 26.34936035 -76.23559082 26.5190332 -77.37719727 26.69384766 C-79.51155204 27.0206673 -81.64613624 27.34599416 -83.78100586 27.66943359 C-100.16109803 30.25541134 -114.39582149 34.28850231 -125.703125 47.203125 C-134.63401904 59.91660243 -136.85268515 71.49090759 -136.85029602 86.67721558 C-136.85397271 87.93458058 -136.8576494 89.19194559 -136.8614375 90.48741257 C-136.87140914 93.96590797 -136.87516642 97.44438611 -136.87782681 100.92289376 C-136.881744 104.6789499 -136.89132095 108.43499256 -136.90003967 112.19104004 C-136.91975878 121.25312479 -136.9298621 130.31521058 -136.93876746 139.37731141 C-136.9431557 143.64783404 -136.94852092 147.91835544 -136.95375633 152.18887711 C-136.97076004 166.38804047 -136.98525542 180.58720307 -136.99250507 194.78637505 C-136.99441485 198.46712113 -136.99633521 202.14786722 -136.99829102 205.82861328 C-136.99877476 206.74340333 -136.9992585 207.65819337 -136.9997569 208.60070433 C-137.00806201 223.42842948 -137.03341086 238.25607409 -137.06587169 253.08376406 C-137.09894475 268.3154679 -137.11695384 283.54713077 -137.12014931 298.7788707 C-137.12231361 307.32768706 -137.13105107 315.87638576 -137.15661049 324.42516708 C-137.17832041 331.70298413 -137.18636629 338.98065492 -137.17664371 346.25850068 C-137.17210054 349.97006706 -137.17398609 353.68133165 -137.19340515 357.3928566 C-137.21429586 361.42047216 -137.20404733 365.44741908 -137.19087219 369.47506714 C-137.20184144 370.6424888 -137.21281068 371.80991047 -137.22411233 373.01270854 C-137.14240518 383.35823751 -133.88731641 391.65642852 -126.703125 399.203125 C-118.64358859 405.55403969 -110.97142882 406.49842889 -100.96343994 406.47055054 C-99.77297176 406.47508165 -98.58250358 406.47961276 -97.35596061 406.48428118 C-94.05949086 406.494741 -90.76323953 406.49625282 -87.46676874 406.49389243 C-83.90835163 406.49348382 -80.34996691 406.50452773 -76.79156494 406.51400757 C-69.82265244 406.53060925 -62.85377377 406.53611675 -55.88484314 406.53723232 C-50.21859079 406.53818326 -44.55234959 406.54229583 -38.88610077 406.54863358 C-22.81364234 406.56624427 -6.7412106 406.5754728 9.33125755 406.57397263 C10.63053213 406.57385276 10.63053213 406.57385276 11.95605469 406.57373047 C12.82329809 406.57364871 13.69054149 406.57356695 14.58406499 406.57348271 C28.63520249 406.57267001 42.68623274 406.59180393 56.73733923 406.6200072 C71.17236352 406.64875191 85.60733553 406.6625466 100.04238915 406.66081965 C108.14355769 406.66015626 116.24461381 406.66562597 124.34575653 406.68717575 C131.24406073 406.70540853 138.14220156 406.70971779 145.04051945 406.6961569 C148.55777719 406.68963755 152.07472173 406.68947214 155.59194946 406.7068634 C159.41133046 406.72230564 163.22989194 406.71301281 167.04925537 406.69760132 C168.70365903 406.71303201 168.70365903 406.71303201 170.39148498 406.72877443 C179.61211677 406.64670481 187.81879513 404.45931806 194.6953125 398.0390625 C200.93980625 390.8807404 203.41300476 384.09614512 203.43109608 374.65417957 C203.43778284 373.02665673 203.43778284 373.02665673 203.44460469 371.36625463 C203.44442033 370.18504102 203.44423597 369.00382742 203.44404602 367.78681946 C203.44956105 365.89191962 203.44956105 365.89191962 203.4551875 363.95873898 C203.46517256 360.45904234 203.46891863 356.95936284 203.47157681 353.45965397 C203.47549015 349.68241028 203.48506759 345.90518002 203.49378967 342.12794495 C203.51352272 333.01055556 203.52361525 323.89316512 203.53251746 314.77575973 C203.53690463 310.47909348 203.54227024 306.18242845 203.54750633 301.88576317 C203.56451373 287.59828732 203.57900794 273.31081224 203.58625507 259.02332783 C203.58816486 255.31836763 203.59008521 251.61340744 203.59204102 247.90844727 C203.59252476 246.98763511 203.5930085 246.06682295 203.5935069 245.1181074 C203.60180749 230.20113861 203.62714709 215.28425 203.65962169 200.36731622 C203.69271063 185.04297338 203.7107054 169.71867128 203.71389931 154.39429253 C203.71606246 145.79397777 203.72478281 137.19378003 203.75036049 128.59350014 C203.77209237 121.26960303 203.78010561 113.94585138 203.77039371 106.62192569 C203.76585649 102.88784116 203.76770122 99.1540566 203.78715515 95.42001343 C203.80810034 91.36458211 203.79777788 87.30981275 203.78462219 83.25434875 C203.79559144 82.08428876 203.80656068 80.91422876 203.81786233 79.7087124 C203.71592976 66.6649106 198.69538578 54.56312935 190.11328125 44.69140625 C179.55915685 34.48388693 167.11257228 30.26222154 152.921875 27.953125 C151.50048139 27.70768621 150.07925978 27.46124945 148.65820312 27.21386719 C144.54310261 26.50763028 140.42146907 25.85158726 136.296875 25.203125 C135.25241211 25.03296875 134.20794922 24.8628125 133.13183594 24.6875 C71.79527184 14.91073403 -4.09467717 13.33538077 -65.25341797 24.76464844 Z M-35.703125 436.203125 C-36.85588094 437.71384167 -38.02012746 439.21597069 -39.203125 440.703125 C-41.25436538 443.17407302 -41.25436538 443.17407302 -41.703125 446.203125 C8.126875 446.203125 57.956875 446.203125 109.296875 446.203125 C107.92377379 443.45692258 106.73186602 441.26153469 104.984375 438.8203125 C104.33082031 437.90572266 104.33082031 437.90572266 103.6640625 436.97265625 C103.21289062 436.34746094 102.76171875 435.72226562 102.296875 435.078125 C101.84570312 434.44519531 101.39453125 433.81226563 100.9296875 433.16015625 C99.15970457 430.69370075 97.44729414 428.35354414 95.296875 426.203125 C93.06420015 425.87630232 93.06420015 425.87630232 90.44064331 425.89532471 C89.41451431 425.87812378 88.38838531 425.86092285 87.3311615 425.84320068 C86.20077957 425.83468079 85.07039764 425.82616089 83.90576172 425.81738281 C82.71863083 425.80102783 81.53149994 425.78467285 80.30839539 425.76782227 C76.36450592 425.71804146 72.42064645 425.68475708 68.4765625 425.65625 C67.11778868 425.64552932 65.75901513 425.6347743 64.40024185 425.62398529 C58.74535997 425.58071778 53.09048949 425.5432498 47.43548393 425.52074051 C39.33862173 425.48829803 31.24368487 425.42205549 23.14754856 425.30793881 C17.45146446 425.23040022 11.75589359 425.19145887 6.05929577 425.18089938 C2.65888306 425.17360723 -0.73947697 425.14974923 -4.13931656 425.08469391 C-7.93957673 425.02144267 -11.73499618 425.02130382 -15.53564453 425.03613281 C-16.65388107 425.00332214 -17.77211761 424.97051147 -18.92424011 424.93670654 C-27.97786647 425.08111491 -30.97820065 428.86054318 -35.703125 436.203125 Z " fill="#000000" transform="translate(222.703125,-0.203125)"/>
<path d="M0 0 C39.6 0 79.2 0 120 0 C120 48.18 120 96.36 120 146 C80.4 146 40.8 146 0 146 C0 97.82 0 49.64 0 0 Z " fill="#E2E2E2" transform="translate(266,100)"/>
<path d="M0 0 C39.6 0 79.2 0 120 0 C120 48.18 120 96.36 120 146 C80.4 146 40.8 146 0 146 C0 97.82 0 49.64 0 0 Z " fill="#E2E2E2" transform="translate(126,100)"/>
<path d="M0 0 C7.39567909 7.08696653 12.15372454 16.11410768 13.125 26.3125 C13.21394531 27.17875 13.30289063 28.045 13.39453125 28.9375 C14.00642113 39.63845785 10.17775547 49.08559043 3.375 57.3125 C-5.28790205 66.22433602 -15.16117695 69.58190437 -27.33984375 70.2734375 C-38.28227907 70.39434839 -47.1671363 66.33464961 -55.24609375 59.04296875 C-63.38450552 50.39712603 -67.25253277 40.34369741 -67.0234375 28.4765625 C-66.22546302 16.84293455 -61.50750703 7.21315672 -52.875 -0.6875 C-36.50161227 -12.2436782 -16.03826268 -13.22688108 0 0 Z " fill="#020100" transform="translate(392.875,305.6875)"/>
<path d="M0 0 C7.39567909 7.08696653 12.15372454 16.11410768 13.125 26.3125 C13.21394531 27.17875 13.30289063 28.045 13.39453125 28.9375 C14.00642113 39.63845785 10.17775547 49.08559043 3.375 57.3125 C-5.28790205 66.22433602 -15.16117695 69.58190437 -27.33984375 70.2734375 C-38.28227907 70.39434839 -47.1671363 66.33464961 -55.24609375 59.04296875 C-63.38450552 50.39712603 -67.25253277 40.34369741 -67.0234375 28.4765625 C-66.22546302 16.84293455 -61.50750703 7.21315672 -52.875 -0.6875 C-36.50161227 -12.2436782 -16.03826268 -13.22688108 0 0 Z " fill="#020100" transform="translate(172.875,305.6875)"/>
<path d="M0 0 C1.81274414 0.01450195 1.81274414 0.01450195 3.66210938 0.02929688 C5.55606445 0.06700195 5.55606445 0.06700195 7.48828125 0.10546875 C9.39963867 0.12577148 9.39963867 0.12577148 11.34960938 0.14648438 C14.50042182 0.18188676 17.6503917 0.23127085 20.80078125 0.29296875 C17.74777703 5.92871004 14.20757325 10.98381299 10.36328125 16.10546875 C9.10474105 17.7976361 7.84694571 19.49035766 6.58984375 21.18359375 C5.63899902 22.46266602 5.63899902 22.46266602 4.66894531 23.76757812 C1.82792567 27.60807828 -0.96992958 31.47909962 -3.76171875 35.35546875 C-4.28612549 36.08306396 -4.81053223 36.81065918 -5.35083008 37.56030273 C-6.41630605 39.03917882 -7.48149029 40.51826514 -8.54638672 41.99755859 C-11.46916961 46.05664348 -14.39666985 50.11232068 -17.32421875 54.16796875 C-17.86892822 54.92343994 -18.4136377 55.67891113 -18.97485352 56.45727539 C-19.48459717 57.16360107 -19.99434082 57.86992676 -20.51953125 58.59765625 C-20.96570801 59.21624512 -21.41188477 59.83483398 -21.87158203 60.47216797 C-22.52876221 61.37346436 -22.52876221 61.37346436 -23.19921875 62.29296875 C-23.54944092 63.02112793 -23.89966309 63.74928711 -24.26049805 64.49951172 C-27.56432755 67.55579323 -31.57899584 66.77999044 -35.8984375 66.68359375 C-37.32371513 66.67510406 -37.32371513 66.67510406 -38.77778625 66.66644287 C-41.81460819 66.64404023 -44.85025306 66.59383645 -47.88671875 66.54296875 C-49.94464443 66.52290879 -52.00258858 66.50465714 -54.06054688 66.48828125 C-59.10722482 66.44416262 -64.15302218 66.37510805 -69.19921875 66.29296875 C-65.89721487 62.37566256 -62.57887521 58.5475604 -58.921875 54.953125 C-58.16068359 54.19966797 -57.39949219 53.44621094 -56.61523438 52.66992188 C-55.05016262 51.13082642 -53.48505862 49.59176375 -51.91992188 48.05273438 C-48.43082529 44.59903015 -45.01239369 41.14591807 -41.8203125 37.4140625 C-36.80065344 31.57238633 -31.22276232 26.25988068 -25.7421875 20.85644531 C-20.52486895 15.70592531 -15.38029991 10.54664452 -10.63671875 4.94921875 C-10.16234375 4.40265625 -9.68796875 3.85609375 -9.19921875 3.29296875 C-8.55569458 2.45125122 -8.55569458 2.45125122 -7.89916992 1.5925293 C-5.3256829 -0.37482262 -3.19672891 -0.04502435 0 0 Z " fill="#56545B" transform="translate(148.19921875,425.70703125)"/>
<path d="M0 0 C24.65092908 -2.60059033 24.65092908 -2.60059033 31.453125 2.8828125 C34.48636644 5.96599573 37.00335681 9.40665409 39.47607422 12.94726562 C41.95677683 16.28878238 44.93401209 19.07181416 47.9375 21.9375 C51.20286188 25.15172112 54.41533415 28.37310529 57.375 31.875 C60.85251891 35.98161781 64.6798939 39.71628464 68.5 43.5 C73.54904838 48.50552738 78.4277984 53.55117328 83 59 C84.05961576 60.24093606 85.12079552 61.48053847 86.18359375 62.71875 C86.97914673 63.6459082 86.97914673 63.6459082 87.79077148 64.59179688 C88.3893396 65.28885742 88.3893396 65.28885742 89 66 C52.98571483 68.98868715 52.98571483 68.98868715 43.84619141 64.42529297 C39.2197289 60.347983 36.71334845 55.21564146 34.25585938 49.63818359 C32.20574296 45.33150435 29.32003125 41.71466771 26.4375 37.9375 C25.36638929 36.46043133 24.29996928 34.97994972 23.23828125 33.49609375 C21.01095204 30.40171405 18.77891759 27.31081349 16.54296875 24.22265625 C0 1.37180197 0 1.37180197 0 0 Z " fill="#56545B" transform="translate(344,426)"/>
<path d="M0 0 C0.82146011 -0.0049649 1.64292023 -0.00992981 2.48927307 -0.01504517 C5.20851477 -0.02965784 7.92769814 -0.03646705 10.64697266 -0.04199219 C12.53642783 -0.04774406 14.42588299 -0.05350179 16.31533813 -0.05926514 C20.27809928 -0.06977236 24.24084016 -0.07561696 28.20361328 -0.07910156 C33.28017399 -0.08458787 38.35646671 -0.10861999 43.43294334 -0.13707352 C47.3363015 -0.1557006 51.23959508 -0.16090552 55.14299393 -0.16243744 C57.01448661 -0.16546398 58.88597815 -0.17349254 60.75742722 -0.18662262 C63.37625256 -0.20368576 65.9944228 -0.20180238 68.61328125 -0.1953125 C69.38540451 -0.20452728 70.15752777 -0.21374207 70.95304871 -0.22323608 C75.4622281 -0.1882481 78.37125557 0.34087846 81.93603516 3.16113281 C84.3820922 6.83021839 84.77549918 9.8973205 83.93603516 14.16113281 C81.760291 16.8521848 80.02537659 18.61646209 76.93603516 20.16113281 C74.27751479 20.26986614 71.64479089 20.31845345 68.9855957 20.32226562 C68.16428162 20.32723053 67.34296753 20.33219543 66.49676514 20.33731079 C63.77208628 20.35194893 61.04746567 20.35873752 58.32275391 20.36425781 C56.43186949 20.37000836 54.54098509 20.37576611 52.65010071 20.38153076 C48.6813632 20.39204576 44.71264597 20.39788501 40.74389648 20.40136719 C35.65945999 20.40684983 30.57529158 20.43087083 25.49093914 20.45933914 C21.58328978 20.47796814 17.67570492 20.48317129 13.76801491 20.48470306 C11.89373116 20.48773005 10.01944857 20.49576013 8.14520836 20.50888824 C5.52148471 20.52595257 2.89841491 20.52406751 0.2746582 20.51757812 C-0.88588326 20.5314003 -0.88588326 20.5314003 -2.06987 20.54550171 C-6.59061214 20.51049449 -9.46352474 19.94104529 -13.06396484 17.16113281 C-15.62996441 14.08193334 -16.07242469 12.64334403 -16.00146484 8.59863281 C-14.984524 4.86984973 -14.09828029 3.48149168 -11.06396484 1.16113281 C-7.34096324 -0.07986772 -3.87817864 0.00558543 0 0 Z " fill="#010000" transform="translate(222.06396484375,345.8388671875)"/>
<path d="M0 0 C0.82146011 -0.0049649 1.64292023 -0.00992981 2.48927307 -0.01504517 C5.20851477 -0.02965784 7.92769814 -0.03646705 10.64697266 -0.04199219 C12.53642783 -0.04774406 14.42588299 -0.05350179 16.31533813 -0.05926514 C20.27809928 -0.06977236 24.24084016 -0.07561696 28.20361328 -0.07910156 C33.28017399 -0.08458787 38.35646671 -0.10861999 43.43294334 -0.13707352 C47.3363015 -0.1557006 51.23959508 -0.16090552 55.14299393 -0.16243744 C57.01448661 -0.16546398 58.88597815 -0.17349254 60.75742722 -0.18662262 C63.37625256 -0.20368576 65.9944228 -0.20180238 68.61328125 -0.1953125 C69.38540451 -0.20452728 70.15752777 -0.21374207 70.95304871 -0.22323608 C75.4622281 -0.1882481 78.37125557 0.34087846 81.93603516 3.16113281 C84.3820922 6.83021839 84.77549918 9.8973205 83.93603516 14.16113281 C81.760291 16.8521848 80.02537659 18.61646209 76.93603516 20.16113281 C74.27751479 20.26986614 71.64479089 20.31845345 68.9855957 20.32226562 C68.16428162 20.32723053 67.34296753 20.33219543 66.49676514 20.33731079 C63.77208628 20.35194893 61.04746567 20.35873752 58.32275391 20.36425781 C56.43186949 20.37000836 54.54098509 20.37576611 52.65010071 20.38153076 C48.6813632 20.39204576 44.71264597 20.39788501 40.74389648 20.40136719 C35.65945999 20.40684983 30.57529158 20.43087083 25.49093914 20.45933914 C21.58328978 20.47796814 17.67570492 20.48317129 13.76801491 20.48470306 C11.89373116 20.48773005 10.01944857 20.49576013 8.14520836 20.50888824 C5.52148471 20.52595257 2.89841491 20.52406751 0.2746582 20.51757812 C-0.88588326 20.5314003 -0.88588326 20.5314003 -2.06987 20.54550171 C-6.59061214 20.51049449 -9.46352474 19.94104529 -13.06396484 17.16113281 C-15.62996441 14.08193334 -16.07242469 12.64334403 -16.00146484 8.59863281 C-14.984524 4.86984973 -14.09828029 3.48149168 -11.06396484 1.16113281 C-7.34096324 -0.07986772 -3.87817864 0.00558543 0 0 Z " fill="#010000" transform="translate(222.06396484375,305.8388671875)"/>
<path d="M0 0 C0.82146011 -0.0049649 1.64292023 -0.00992981 2.48927307 -0.01504517 C5.20851477 -0.02965784 7.92769814 -0.03646705 10.64697266 -0.04199219 C12.53642783 -0.04774406 14.42588299 -0.05350179 16.31533813 -0.05926514 C20.27809928 -0.06977236 24.24084016 -0.07561696 28.20361328 -0.07910156 C33.28017399 -0.08458787 38.35646671 -0.10861999 43.43294334 -0.13707352 C47.3363015 -0.1557006 51.23959508 -0.16090552 55.14299393 -0.16243744 C57.01448661 -0.16546398 58.88597815 -0.17349254 60.75742722 -0.18662262 C63.37625256 -0.20368576 65.9944228 -0.20180238 68.61328125 -0.1953125 C69.38540451 -0.20452728 70.15752777 -0.21374207 70.95304871 -0.22323608 C75.4622281 -0.1882481 78.37125557 0.34087846 81.93603516 3.16113281 C84.3820922 6.83021839 84.77549918 9.8973205 83.93603516 14.16113281 C81.760291 16.8521848 80.02537659 18.61646209 76.93603516 20.16113281 C74.27751479 20.26986614 71.64479089 20.31845345 68.9855957 20.32226562 C68.16428162 20.32723053 67.34296753 20.33219543 66.49676514 20.33731079 C63.77208628 20.35194893 61.04746567 20.35873752 58.32275391 20.36425781 C56.43186949 20.37000836 54.54098509 20.37576611 52.65010071 20.38153076 C48.6813632 20.39204576 44.71264597 20.39788501 40.74389648 20.40136719 C35.65945999 20.40684983 30.57529158 20.43087083 25.49093914 20.45933914 C21.58328978 20.47796814 17.67570492 20.48317129 13.76801491 20.48470306 C11.89373116 20.48773005 10.01944857 20.49576013 8.14520836 20.50888824 C5.52148471 20.52595257 2.89841491 20.52406751 0.2746582 20.51757812 C-0.88588326 20.5314003 -0.88588326 20.5314003 -2.06987 20.54550171 C-6.59061214 20.51049449 -9.46352474 19.94104529 -13.06396484 17.16113281 C-15.62996441 14.08193334 -16.07242469 12.64334403 -16.00146484 8.59863281 C-14.984524 4.86984973 -14.09828029 3.48149168 -11.06396484 1.16113281 C-7.34096324 -0.07986772 -3.87817864 0.00558543 0 0 Z " fill="#010000" transform="translate(222.06396484375,39.8388671875)"/>
<path d="M0 0 C5.23724692 2.96387807 8.8638854 7.84165621 10.75 13.5 C11.491415 20.34289581 10.84053621 25.8487669 6.75 31.5 C2.99701487 35.54088536 -1.03135579 38.19706878 -6.57421875 38.71875 C-13.41646035 38.96421158 -17.53623492 37.7614709 -22.875 33.3125 C-27.35290333 28.00971974 -30.06212077 22.8801809 -29.6953125 15.80078125 C-28.54123565 9.83805088 -25.4886691 5.09353896 -20.625 1.5 C-14.20213587 -2.30614171 -6.9574741 -3.04305707 0 0 Z " fill="#F9D02C" transform="translate(375.25,317.5)"/>
<path d="M0 0 C5.23724692 2.96387807 8.8638854 7.84165621 10.75 13.5 C11.491415 20.34289581 10.84053621 25.8487669 6.75 31.5 C2.99701487 35.54088536 -1.03135579 38.19706878 -6.57421875 38.71875 C-13.41646035 38.96421158 -17.53623492 37.7614709 -22.875 33.3125 C-27.35290333 28.00971974 -30.06212077 22.8801809 -29.6953125 15.80078125 C-28.54123565 9.83805088 -25.4886691 5.09353896 -20.625 1.5 C-14.20213587 -2.30614171 -6.9574741 -3.04305707 0 0 Z " fill="#F9D02C" transform="translate(155.25,317.5)"/>
<path d="M0 0 C2.86830829 2.01391859 4.61592935 3.45434983 5.48046875 6.93359375 C5.75669245 10.88284615 5.25523948 12.63647711 2.9375 15.9375 C-0.57823396 18.40599406 -2.71383323 19 -7 19 C-10.16553069 17.70501017 -11.69376849 16.36747781 -13.875 13.75 C-15.39424009 10.03630199 -15.04821378 7.84345052 -14 4 C-9.92224421 -1.16515733 -6.24675788 -1.50783811 0 0 Z " fill="#070202" transform="translate(341,41)"/>
<path d="M0 0 C2.86830829 2.01391859 4.61592935 3.45434983 5.48046875 6.93359375 C5.75669245 10.88284615 5.25523948 12.63647711 2.9375 15.9375 C-0.57823396 18.40599406 -2.71383323 19 -7 19 C-10.16553069 17.70501017 -11.69376849 16.36747781 -13.875 13.75 C-15.39424009 10.03630199 -15.04821378 7.84345052 -14 4 C-9.92224421 -1.16515733 -6.24675788 -1.50783811 0 0 Z " fill="#070202" transform="translate(181,41)"/>
</svg>
